<svg width="40" height="40" viewBox="0 0 40 40" fill="none" xmlns="http://www.w3.org/2000/svg">
<mask id="mask0_217_2" style="mask-type:alpha" maskUnits="userSpaceOnUse" x="0" y="0" width="40" height="40">
<rect width="40" height="40" fill="#D9D9D9"/>
</mask>
<g mask="url(#mask0_217_2)">
<path d="M24.1667 21.2501H31.6667V18.7501H24.1667V21.2501ZM24.1667 16.2501H31.6667V13.7501H24.1667V16.2501ZM8.33337 26.6667H21.6667V25.8751C21.6667 24.7084 21.0764 23.757 19.8959 23.0209C18.7153 22.2848 17.0834 21.9167 15 21.9167C12.9167 21.9167 11.2848 22.2848 10.1042 23.0209C8.92365 23.757 8.33337 24.7084 8.33337 25.8751V26.6667ZM14.9967 19.4167C15.8323 19.4167 16.5487 19.1192 17.1459 18.5242C17.7431 17.9292 18.0417 17.214 18.0417 16.3784C18.0417 15.5429 17.7442 14.8265 17.1492 14.2292C16.5542 13.632 15.8389 13.3334 15.0034 13.3334C14.1678 13.3334 13.4514 13.6309 12.8542 14.2259C12.257 14.8209 11.9584 15.5362 11.9584 16.3717C11.9584 17.2073 12.2559 17.9237 12.8509 18.5209C13.4459 19.1181 14.1612 19.4167 14.9967 19.4167ZM5.83337 33.3334C5.16671 33.3334 4.58337 33.0834 4.08337 32.5834C3.58337 32.0834 3.33337 31.5001 3.33337 30.8334V9.16675C3.33337 8.50008 3.58337 7.91675 4.08337 7.41675C4.58337 6.91675 5.16671 6.66675 5.83337 6.66675H34.1667C34.8334 6.66675 35.4167 6.91675 35.9167 7.41675C36.4167 7.91675 36.6667 8.50008 36.6667 9.16675V30.8334C36.6667 31.5001 36.4167 32.0834 35.9167 32.5834C35.4167 33.0834 34.8334 33.3334 34.1667 33.3334H5.83337ZM5.83337 30.8334H34.1667V9.16675H5.83337V30.8334Z" fill="#1C1B1F"/>
</g>
</svg>
