<svg width="40" height="40" viewBox="0 0 40 40" fill="none" xmlns="http://www.w3.org/2000/svg">
<mask id="mask0_107_77" style="mask-type:alpha" maskUnits="userSpaceOnUse" x="0" y="0" width="40" height="40">
<rect width="40" height="40" fill="#D9D9D9"/>
</mask>
<g mask="url(#mask0_107_77)">
<path d="M15.125 23.225L20 18.35L24.875 23.225L26.4875 21.65L20 15.1625L13.5125 21.65L15.125 23.225ZM20 35C17.925 35 15.975 34.6062 14.15 33.8187C12.325 33.0312 10.7375 31.9625 9.3875 30.6125C8.0375 29.2625 6.96875 27.675 6.18125 25.85C5.39375 24.025 5 22.075 5 20C5 17.925 5.39375 15.9813 6.18125 14.1688C6.96875 12.3563 8.0375 10.7687 9.3875 9.40625C10.7375 8.04375 12.325 6.96875 14.15 6.18125C15.975 5.39375 17.925 5 20 5C22.075 5 24.0187 5.39375 25.8312 6.18125C27.6437 6.96875 29.2313 8.04375 30.5938 9.40625C31.9562 10.7687 33.0312 12.3563 33.8187 14.1688C34.6062 15.9813 35 17.925 35 20C35 22.075 34.6062 24.025 33.8187 25.85C33.0312 27.675 31.9562 29.2625 30.5938 30.6125C29.2313 31.9625 27.6437 33.0312 25.8312 33.8187C24.0187 34.6062 22.075 35 20 35ZM20 32.75C23.525 32.75 26.5313 31.5125 29.0188 29.0375C31.5063 26.5625 32.75 23.55 32.75 20C32.75 16.475 31.5063 13.4688 29.0188 10.9812C26.5313 8.49375 23.525 7.25 20 7.25C16.45 7.25 13.4375 8.49375 10.9625 10.9812C8.4875 13.4688 7.25 16.475 7.25 20C7.25 23.55 8.4875 26.5625 10.9625 29.0375C13.4375 31.5125 16.45 32.75 20 32.75Z" fill="#1C1B1F"/>
</g>
</svg>
