<svg width="40" height="40" viewBox="0 0 40 40" fill="none" xmlns="http://www.w3.org/2000/svg">
<mask id="mask0_107_74" style="mask-type:alpha" maskUnits="userSpaceOnUse" x="0" y="0" width="40" height="40">
<rect width="40" height="40" fill="#D9D9D9"/>
</mask>
<g mask="url(#mask0_107_74)">
<path d="M13.475 18.3875C13.9 18.3875 14.2563 18.2437 14.5438 17.9562C14.8313 17.6687 14.975 17.3125 14.975 16.8875C14.975 16.4625 14.8313 16.1063 14.5438 15.8188C14.2563 15.5313 13.9 15.3875 13.475 15.3875C13.05 15.3875 12.6937 15.5313 12.4062 15.8188C12.1188 16.1063 11.975 16.4625 11.975 16.8875C11.975 17.3125 12.1188 17.6687 12.4062 17.9562C12.6937 18.2437 13.05 18.3875 13.475 18.3875ZM20.1125 18.3875C20.5375 18.3875 20.8938 18.2437 21.1813 17.9562C21.4688 17.6687 21.6125 17.3125 21.6125 16.8875C21.6125 16.4625 21.4688 16.1063 21.1813 15.8188C20.8938 15.5313 20.5375 15.3875 20.1125 15.3875C19.6875 15.3875 19.3313 15.5313 19.0438 15.8188C18.7563 16.1063 18.6125 16.4625 18.6125 16.8875C18.6125 17.3125 18.7563 17.6687 19.0438 17.9562C19.3313 18.2437 19.6875 18.3875 20.1125 18.3875ZM26.4875 18.3875C26.9125 18.3875 27.2688 18.2437 27.5563 17.9562C27.8438 17.6687 27.9875 17.3125 27.9875 16.8875C27.9875 16.4625 27.8438 16.1063 27.5563 15.8188C27.2688 15.5313 26.9125 15.3875 26.4875 15.3875C26.0625 15.3875 25.7063 15.5313 25.4188 15.8188C25.1313 16.1063 24.9875 16.4625 24.9875 16.8875C24.9875 17.3125 25.1313 17.6687 25.4188 17.9562C25.7063 18.2437 26.0625 18.3875 26.4875 18.3875ZM5 35V7.25C5 6.65 5.225 6.125 5.675 5.675C6.125 5.225 6.65 5 7.25 5H32.75C33.35 5 33.875 5.225 34.325 5.675C34.775 6.125 35 6.65 35 7.25V26.75C35 27.35 34.775 27.875 34.325 28.325C33.875 28.775 33.35 29 32.75 29H11L5 35ZM10.025 26.75H32.75V7.25H7.25V29.75L10.025 26.75Z" fill="#1C1B1F"/>
</g>
</svg>
