<svg width="40" height="40" viewBox="0 0 40 40" fill="none" xmlns="http://www.w3.org/2000/svg">
<g clip-path="url(#clip0_218_80)">
<path d="M15.6167 9.18333C15.3156 10.2631 15.1642 11.3791 15.1667 12.5C15.1667 19.3 20.7 24.8333 27.5 24.8333C28.6333 24.8333 29.75 24.6833 30.8167 24.3833C29.9412 26.5345 28.4447 28.3762 26.5182 29.6734C24.5918 30.9705 22.3225 31.6645 20 31.6667C13.5667 31.6667 8.33334 26.4333 8.33334 20C8.33334 15.1167 11.35 10.9167 15.6167 9.18333ZM20 5C17.0333 5 14.1332 5.87973 11.6665 7.52796C9.19972 9.17618 7.27713 11.5189 6.14181 14.2597C5.0065 17.0006 4.70945 20.0166 5.28823 22.9264C5.86701 25.8361 7.29562 28.5088 9.3934 30.6066C11.4912 32.7044 14.1639 34.133 17.0737 34.7118C19.9834 35.2906 22.9994 34.9935 25.7403 33.8582C28.4811 32.7229 30.8238 30.8003 32.4721 28.3336C34.1203 25.8668 35 22.9667 35 20C35 19.2333 34.9333 18.4667 34.8333 17.7333C34.0006 18.9011 32.9002 19.8524 31.6244 20.5078C30.3485 21.1631 28.9343 21.5033 27.5 21.5C25.592 21.5 23.7333 20.8941 22.192 19.7694C20.6507 18.6448 19.5064 17.0597 18.9242 15.2427C18.342 13.4257 18.352 11.4707 18.9528 9.65976C19.5535 7.84881 20.7139 6.27547 22.2667 5.16667C21.5333 5.06667 20.7667 5 20 5Z" fill="white"/>
</g>
<defs>
<clipPath id="clip0_218_80">
<rect width="40" height="40" fill="white"/>
</clipPath>
</defs>
</svg>
