<svg width="40" height="40" viewBox="0 0 40 40" fill="none" xmlns="http://www.w3.org/2000/svg">
<path d="M20 28.75C18.8509 28.75 17.7131 28.5237 16.6515 28.0839C15.5899 27.6442 14.6253 26.9997 13.8128 26.1872C13.0003 25.3747 12.3558 24.4101 11.9161 23.3485C11.4763 22.2869 11.25 21.1491 11.25 20C11.25 18.8509 11.4763 17.7131 11.9161 16.6515C12.3558 15.5899 13.0003 14.6253 13.8128 13.8128C14.6253 13.0003 15.5899 12.3558 16.6515 11.9161C17.7131 11.4763 18.8509 11.25 20 11.25C22.3206 11.25 24.5462 12.1719 26.1872 13.8128C27.8281 15.4538 28.75 17.6794 28.75 20C28.75 22.3206 27.8281 24.5462 26.1872 26.1872C24.5462 27.8281 22.3206 28.75 20 28.75ZM20 26.875C21.8234 26.875 23.572 26.1507 24.8614 24.8614C26.1507 23.572 26.875 21.8234 26.875 20C26.875 18.1766 26.1507 16.428 24.8614 15.1386C23.572 13.8493 21.8234 13.125 20 13.125C18.1766 13.125 16.428 13.8493 15.1386 15.1386C13.8493 16.428 13.125 18.1766 13.125 20C13.125 21.8234 13.8493 23.572 15.1386 24.8614C16.428 26.1507 18.1766 26.875 20 26.875ZM12.9287 27.0712C13.1043 27.247 13.2029 27.4853 13.2029 27.7338C13.2029 27.9822 13.1043 28.2205 12.9287 28.3962L10.7187 30.6063C10.6042 30.7297 10.4584 30.8199 10.2968 30.8674C10.1353 30.9149 9.9639 30.918 9.80074 30.8763C9.63759 30.8345 9.48871 30.7496 9.36978 30.6304C9.25086 30.5111 9.16629 30.362 9.125 30.1988C9.08323 30.0358 9.08614 29.8646 9.13344 29.7031C9.18073 29.5417 9.27065 29.3959 9.39375 29.2812L11.6025 27.0712C11.6896 26.9841 11.7929 26.915 11.9067 26.8679C12.0205 26.8207 12.1425 26.7965 12.2656 26.7965C12.3888 26.7965 12.5107 26.8207 12.6245 26.8679C12.7383 26.915 12.8417 26.9841 12.9287 27.0712ZM9.39375 9.39375C9.56953 9.21819 9.80781 9.11958 10.0563 9.11958C10.3047 9.11958 10.543 9.21819 10.7187 9.39375L12.9287 11.6037C13.0522 11.7183 13.1424 11.8641 13.1899 12.0257C13.2374 12.1872 13.2405 12.3586 13.1988 12.5218C13.157 12.6849 13.0721 12.8338 12.9528 12.9527C12.8336 13.0716 12.6845 13.1562 12.5213 13.1975C12.3583 13.2393 12.1871 13.2364 12.0256 13.1891C11.8642 13.1418 11.7184 13.0518 11.6037 12.9287L9.39375 10.7187C9.21819 10.543 9.11958 10.3047 9.11958 10.0563C9.11958 9.80781 9.21819 9.56953 9.39375 9.39375ZM20 5C20.2486 5 20.4871 5.09877 20.6629 5.27459C20.8387 5.4504 20.9375 5.68886 20.9375 5.9375V9.0625C20.9375 9.31114 20.8387 9.5496 20.6629 9.72541C20.4871 9.90123 20.2486 10 20 10C19.7514 10 19.5129 9.90123 19.3371 9.72541C19.1613 9.5496 19.0625 9.31114 19.0625 9.0625V5.9375C19.0625 5.68886 19.1613 5.4504 19.3371 5.27459C19.5129 5.09877 19.7514 5 20 5ZM10 20C10 20.2486 9.90123 20.4871 9.72541 20.6629C9.5496 20.8387 9.31114 20.9375 9.0625 20.9375H5.9375C5.68886 20.9375 5.4504 20.8387 5.27459 20.6629C5.09877 20.4871 5 20.2486 5 20C5 19.7514 5.09877 19.5129 5.27459 19.3371C5.4504 19.1613 5.68886 19.0625 5.9375 19.0625H9.0625C9.31114 19.0625 9.5496 19.1613 9.72541 19.3371C9.90123 19.5129 10 19.7514 10 20ZM20 30C20.2486 30 20.4871 30.0988 20.6629 30.2746C20.8387 30.4504 20.9375 30.6889 20.9375 30.9375V34.0625C20.9375 34.3111 20.8387 34.5496 20.6629 34.7254C20.4871 34.9012 20.2486 35 20 35C19.7514 35 19.5129 34.9012 19.3371 34.7254C19.1613 34.5496 19.0625 34.3111 19.0625 34.0625V30.9375C19.0625 30.6889 19.1613 30.4504 19.3371 30.2746C19.5129 30.0988 19.7514 30 20 30ZM35 20C35 20.2486 34.9012 20.4871 34.7254 20.6629C34.5496 20.8387 34.3111 20.9375 34.0625 20.9375H30.9375C30.6889 20.9375 30.4504 20.8387 30.2746 20.6629C30.0988 20.4871 30 20.2486 30 20C30 19.7514 30.0988 19.5129 30.2746 19.3371C30.4504 19.1613 30.6889 19.0625 30.9375 19.0625H34.0625C34.3111 19.0625 34.5496 19.1613 34.7254 19.3371C34.9012 19.5129 35 19.7514 35 20ZM27.0712 27.0712C27.247 26.8957 27.4853 26.7971 27.7338 26.7971C27.9822 26.7971 28.2205 26.8957 28.3962 27.0712L30.6063 29.2812C30.7718 29.4591 30.8619 29.6941 30.8577 29.937C30.8535 30.1799 30.7553 30.4117 30.5837 30.5837C30.4117 30.7553 30.1799 30.8535 29.937 30.8577C29.6941 30.8619 29.4591 30.7718 29.2812 30.6063L27.0712 28.3975C26.9841 28.3104 26.915 28.2071 26.8679 28.0933C26.8207 27.9795 26.7965 27.8575 26.7965 27.7344C26.7965 27.6112 26.8207 27.4893 26.8679 27.3755C26.915 27.2617 26.9841 27.1583 27.0712 27.0712ZM30.6063 9.39375C30.7818 9.56953 30.8804 9.80781 30.8804 10.0563C30.8804 10.3047 30.7818 10.543 30.6063 10.7187L28.3962 12.9287C28.2184 13.0943 27.9834 13.1844 27.7405 13.1802C27.4976 13.176 27.2658 13.0778 27.0937 12.9062C26.9222 12.7342 26.824 12.5024 26.8198 12.2595C26.8156 12.0166 26.9057 11.7816 27.0712 11.6037L29.28 9.39375C29.3671 9.30663 29.4704 9.23752 29.5842 9.19037C29.698 9.14322 29.82 9.11895 29.9431 9.11895C30.0663 9.11895 30.1882 9.14322 30.302 9.19037C30.4158 9.23752 30.5192 9.30663 30.6063 9.39375Z" fill="black"/>
</svg>
