<svg width="40" height="40" viewBox="0 0 40 40" fill="none" xmlns="http://www.w3.org/2000/svg">
<mask id="mask0_107_71" style="mask-type:alpha" maskUnits="userSpaceOnUse" x="0" y="0" width="40" height="40">
<rect width="40" height="40" fill="#D9D9D9"/>
</mask>
<g mask="url(#mask0_107_71)">
<path d="M7.04545 33C6.48295 33 6.00148 32.799 5.60102 32.3969C5.20034 31.995 5 31.5118 5 30.9474V11.7895H7.04545V30.9474H32.2727V33H7.04545ZM11.1364 28.8947C10.5739 28.8947 10.0924 28.6937 9.69193 28.2916C9.29125 27.8897 9.09091 27.4066 9.09091 26.8421V9.05263C9.09091 8.48816 9.29125 8.00488 9.69193 7.60279C10.0924 7.20093 10.5739 7 11.1364 7H19.3182L22.0455 9.73684H32.9545C33.517 9.73684 33.9986 9.93777 34.3993 10.3396C34.7998 10.7417 35 11.225 35 11.7895V26.8421C35 27.4066 34.7998 27.8897 34.3993 28.2916C33.9986 28.6937 33.517 28.8947 32.9545 28.8947H11.1364ZM11.1364 26.8421H32.9545V11.7895H21.1932L18.4659 9.05263H11.1364V26.8421Z" fill="#1C1B1F"/>
</g>
</svg>
